<?xml version="1.0" encoding="UTF-8"?>
<svg width="674px" height="464px" viewBox="0 0 674 464" version="1.1" xmlns="http://www.w3.org/2000/svg" xmlns:xlink="http://www.w3.org/1999/xlink">
    <title>Logos/Dynamic</title>
    <style>
        #bird {
            fill: black;
        }
        @media (prefers-color-scheme: dark) {
            #bird { fill: white; }
        }
    </style>
    <g id="Logos/Dyanmic" stroke="currentColor" stroke-width="1" fill="none" fill-rule="evenodd">
        <g id="bird" transform="translate(-1, -1)" fill="currentColor" fill-rule="nonzero">
            <g id="Group">
                <path d="M0,273.343833 C0,273.343833 15.4399488,269.87602 27.5614982,268.286084 C27.5614982,268.286084 33.7349733,230.102577 76.5110196,228.925773 C76.5110196,228.925773 100.04035,228.450044 111.673531,241.757936 C123.306712,255.065827 136.617876,274.30781 153.022039,270.739843 C153.022039,270.739843 79.6791518,232.180761 120.226236,168.508198 C160.773319,104.835635 400.624722,38.0082384 439.268422,0 C439.268422,0 422.163012,52.580567 325.215661,112.760278 C259.073074,153.823197 261.064114,216.406591 269.003228,252.036184 C272.672251,268.48639 283.103295,282.58299 297.641641,291.121073 C315.748831,301.749859 343.297807,317.824489 367.828918,331.795897 C367.828918,331.795897 603.397707,379.468944 675,399.111542 C675,399.111542 426.608415,352.865681 419.633515,369.340926 C412.658615,385.81617 642.053929,465 642.053929,465 C642.053929,465 434.848063,404.181811 347.405109,370.605363 C347.405109,370.605363 204.826636,392.138357 131.333482,359.838866 C57.8403272,327.539375 46.0944457,288.86762 0,273.343833 Z" id="Path"></path>
                <path d="M336.235252,117.980777 C336.235252,117.980777 268.765305,161.597609 287.999499,229.163638 C287.999499,229.163638 397.306322,172.15128 441.97323,97.549471 C441.97323,97.549471 410.604964,116.55359 336.235252,117.980777 Z" id="Path"></path>
            </g>
        </g>
    </g>
</svg>
